HIERARCHY
ROOT Root
{
  OFFSET -9.11166 11.8871 1.63708
  CHANNELS 6 Xposition Yposition Zposition Zrotation Xrotation Yrotation
  JOINT Spine
  {
    OFFSET 5.3114 0 0
    CHANNELS 3 Zrotation Xrotation Yrotation
    JOINT Spine1
    {
      OFFSET 2.79004 0 0
      CHANNELS 3 Zrotation Xrotation Yrotation
      JOINT Neck
      {
        OFFSET 1.43377 0 0
        CHANNELS 3 Zrotation Xrotation Yrotation
        JOINT Head
        {
          OFFSET 1.86043 0 0
          CHANNELS 3 Zrotation Xrotation Yrotation
          End Site
          {
            OFFSET 0 0 0
          }
        }
      }
      JOINT LeftArm
      {
        OFFSET 0.0387506 0 2.55754
        CHANNELS 3 Zrotation Xrotation Yrotation
        JOINT LeftForeArm
        {
          OFFSET 4.24845 0 0
          CHANNELS 3 Zrotation Xrotation Yrotation
          JOINT LeftHand
          {
            OFFSET 4.01008 0 0
            CHANNELS 3 Zrotation Xrotation Yrotation
            End Site
            {
              OFFSET 0 0 0
            }
          }
        }
      }
      JOINT RightArm
      {
        OFFSET 0.0387506 0 -2.55754
        CHANNELS 3 Zrotation Xrotation Yrotation
        JOINT RightForeArm
        {
          OFFSET -4.24845 0 0
          CHANNELS 3 Zrotation Xrotation Yrotation
          JOINT RightHand
          {
            OFFSET -4.01009 0 0
            CHANNELS 3 Zrotation Xrotation Yrotation
            End Site
            {
              OFFSET 0 0 0
            }
          }
        }
      }
    }
  }
  JOINT LeftUpLeg
  {
    OFFSET -1.23318 0 2.05692
    CHANNELS 3 Zrotation Xrotation Yrotation
    JOINT LeftLeg
    {
      OFFSET 5.46397 0 0
      CHANNELS 3 Zrotation Xrotation Yrotation
      JOINT LeftFoot
      {
        OFFSET 4.68898 0 0
        CHANNELS 3 Zrotation Xrotation Yrotation
        End Site
        {
          OFFSET 0 0 0
        }
      }
    }
  }
  JOINT RightUpLeg
  {
    OFFSET -1.24454 0 -2.05007
    CHANNELS 3 Zrotation Xrotation Yrotation
    JOINT RightLeg
    {
      OFFSET -5.46397 0 0
      CHANNELS 3 Zrotation Xrotation Yrotation
      JOINT RightFoot
      {
        OFFSET -4.68901 0 0
        CHANNELS 3 Zrotation Xrotation Yrotation
        End Site
        {
          OFFSET 0 0 0
        }
      }
    }
  }
}
MOTION
Frames:	10
Frame Time:	0.00833333
10.0528 12.0023 -1.3085 95.2612 -10.0105 1.22344 -4.70965 0.0155568 1.98508 3.86645 0.0479625 1.14982 -17.4533 1.20266 -3.75913 22.382 1.7906 0.115021 9.44062 -22.5842 -172.691 21.3656 0.456973 12.4218 -0.761048 -8.63458 174.398 -170.949 -0.210112 -170.411 27.444 1.43688 15.8795 1.6262 17.9463 174.19 -6.80199 -9.18062 -175.349 -27.2867 -1.1809 -1.1409 36.9597 -11.9722 -174.997 163.346 -6.9818 179.052 -32.0887 -0.729757 -1.31747 6.1993 10.5997 175.516 
10.0445 11.9989 -1.33436 95.2936 -10.218 1.22908 -4.71472 0.0304203 2.03794 3.88376 0.0527323 1.14856 -17.4681 1.22925 -3.7181 22.412 1.83321 0.0029246 9.3432 -22.679 -172.692 21.4938 0.473813 12.4954 -0.770096 -8.73601 174.397 -170.988 -0.195739 -170.385 27.3897 1.42638 15.8489 1.623 17.914 174.192 -6.65886 -9.13802 -175.223 -27.257 -1.18572 -1.14001 37.1987 -11.9423 -174.947 163.322 -6.80364 178.982 -32.087 -0.723414 -1.31782 5.77329 10.7726 175.579 
10.0364 11.995 -1.36056 95.3267 -10.429 1.2337 -4.70976 0.0493973 2.08924 3.89722 0.0588253 1.15489 -17.4888 1.25219 -3.66477 22.4322 1.86726 -0.132607 9.22963 -22.7953 -172.691 21.6455 0.493745 12.5825 -0.781263 -8.86033 174.395 -171.013 -0.236393 -170.35 27.3566 1.42001 15.8303 1.61137 17.7954 174.196 -6.53595 -9.06616 -175.089 -27.2696 -1.19102 -1.14027 37.4538 -11.8576 -174.929 163.305 -6.60586 178.918 -32.0713 -0.716916 -1.31689 5.29843 10.9561 175.652 
10.0286 11.991 -1.38694 95.3596 -10.6355 1.24483 -4.69337 0.0622283 2.13141 3.90414 0.0630681 1.16373 -17.5038 1.27573 -3.60647 22.4358 1.90362 -0.271545 9.10938 -22.9263 -172.683 21.819 0.516889 12.682 -0.793771 -8.99926 174.393 -171.048 -0.27326 -170.312 27.3268 1.41433 15.8135 1.6018 17.6977 174.199 -6.43925 -8.92904 -174.952 -27.3141 -1.19565 -1.14153 37.6469 -11.7675 -174.933 163.284 -6.40473 178.863 -32.0665 -0.710822 -1.31593 4.8236 11.1461 175.726 
10.0211 11.9871 -1.41331 95.3914 -10.8299 1.27004 -4.66413 0.058655 2.15689 3.9018 0.0622871 1.17001 -17.5017 1.30411 -3.55049 22.4159 1.95318 -0.393859 8.99197 -23.0656 -172.662 22.0127 0.543362 12.7931 -0.806848 -9.14457 174.391 -171.119 -0.247552 -170.278 27.2824 1.40589 15.7884 1.60473 17.7282 174.198 -6.37506 -8.6907 -174.817 -27.3806 -1.19845 -1.14363 37.6999 -11.7211 -174.947 163.252 -6.21648 178.818 -32.0977 -0.70569 -1.31623 4.39782 11.3381 175.796 
10.014 11.9834 -1.43972 95.4182 -11.0164 1.31897 -4.61837 0.0346139 2.15301 3.88836 0.055194 1.17366 -17.4747 1.34016 -3.49371 22.365 2.02302 -0.49914 8.88441 -23.2048 -172.625 22.2278 0.573146 12.9163 -0.82004 -9.29123 174.388 -171.254 -0.0900121 -170.255 27.2052 1.39127 15.7449 1.63206 18.0082 174.189 -6.32748 -8.32819 -174.693 -27.4385 -1.19863 -1.14587 37.5737 -11.7453 -174.966 163.207 -6.05489 178.789 -32.1758 -0.701597 -1.31824 4.0393 11.5329 175.856 
10.0072 11.9797 -1.46623 95.442 -11.1971 1.38508 -4.55795 -0.00398196 2.12735 3.86563 0.0436287 1.17697 -17.4304 1.38106 -3.43393 22.2887 2.10595 -0.596431 8.78031 -23.3498 -172.575 22.4645 0.606177 13.0519 -0.833852 -9.44458 174.386 -171.432 0.150126 -170.237 27.1093 1.37316 15.6909 1.67535 18.4495 174.174 -6.30003 -7.86527 -174.576 -27.5024 -1.19696 -1.14855 37.316 -11.8093 -174.996 163.153 -5.90814 178.773 -32.2862 -0.698268 -1.32125 3.72022 11.732 175.913 
10.0008 11.9758 -1.49268 95.4705 -11.3606 1.45168 -4.48976 -0.0524242 2.10273 3.83643 0.0291101 1.17835 -17.3807 1.42256 -3.37982 22.2 2.19142 -0.679877 8.6692 -23.5144 -172.516 22.72 0.642506 13.1982 -0.848928 -9.61191 174.383 -171.605 0.353897 -170.213 27.0247 1.35718 15.6433 1.71438 18.8453 174.161 -6.3285 -7.33598 -174.448 -27.6301 -1.19464 -1.15302 36.9789 -11.8757 -175.049 163.089 -5.75413 178.757 -32.4151 -0.695737 -1.32477 3.42065 11.933 175.969 
9.99511 11.9714 -1.51891 95.5112 -11.4957 1.50199 -4.42058 -0.106002 2.10197 3.80357 0.013157 1.1762 -17.3376 1.46041 -3.34008 22.1118 2.2689 -0.743621 8.54061 -23.7128 -172.453 22.9918 0.68218 13.3535 -0.865926 -9.80049 174.38 -171.721 0.402345 -170.169 26.9814 1.349 15.6189 1.72858 18.989 174.156 -6.449 -6.77438 -174.295 -27.8793 -1.19286 -1.16063 36.6147 -11.9073 -175.135 163.013 -5.57074 178.726 -32.5486 -0.694039 -1.3283 3.12061 12.1331 176.027 
9.99032 11.9661 -1.54497 95.5691 -11.5951 1.53016 -4.3537 -0.166347 2.13398 3.76126 -0.00462562 1.17147 -17.2981 1.49592 -3.32513 22.0271 2.33958 -0.778724 8.39531 -23.9566 -172.386 23.2777 0.724687 13.5169 -0.885521 -10.0177 174.377 -171.756 0.236452 -170.1 26.9881 1.35019 15.6227 1.70544 18.7555 174.164 -6.67999 -6.14112 -174.099 -28.2609 -1.19055 -1.17201 36.1839 -11.8918 -175.277 162.917 -5.34974 178.673 -32.6921 -0.693225 -1.332 2.81585 12.3311 176.09 
